<svg width="24" height="25" viewBox="0 0 24 25" fill="none" xmlns="http://www.w3.org/2000/svg">
<g clip-path="url(#clip0_1_848)">
<path d="M22 3.5H2C1.44772 3.5 1 3.94772 1 4.5C1 5.05228 1.44772 5.5 2 5.5H22C22.5523 5.5 23 5.05228 23 4.5C23 3.94772 22.5523 3.5 22 3.5Z" fill="white"/>
<path d="M22 11.5H2C1.44772 11.5 1 11.9477 1 12.5C1 13.0523 1.44772 13.5 2 13.5H22C22.5523 13.5 23 13.0523 23 12.5C23 11.9477 22.5523 11.5 22 11.5Z" fill="white"/>
<path d="M22 19.5H2C1.44772 19.5 1 19.9477 1 20.5C1 21.0523 1.44772 21.5 2 21.5H22C22.5523 21.5 23 21.0523 23 20.5C23 19.9477 22.5523 19.5 22 19.5Z" fill="white"/>
</g>
<defs>
<clipPath id="clip0_1_848">
<rect width="24" height="24" fill="white" transform="translate(0 0.5)"/>
</clipPath>
</defs>
</svg>
