<svg width="24" height="25" viewBox="0 0 24 25" fill="none" xmlns="http://www.w3.org/2000/svg">
<g clip-path="url(#clip0_1_868)">
<g clip-path="url(#clip1_1_868)">
<path fill-rule="evenodd" clip-rule="evenodd" d="M17 3.25735L12.7573 7.49999L17 11.7426L21.2426 7.49999L17 3.25735ZM11.3431 6.08578C10.562 6.86682 10.562 8.13316 11.3431 8.9142L15.5857 13.1569C16.3668 13.9379 17.6332 13.9379 18.4142 13.1569L22.6568 8.9142C23.4378 8.13316 23.4378 6.86682 22.6568 6.08578L18.4142 1.84314C17.6332 1.06209 16.3668 1.06209 15.5857 1.84314L11.3431 6.08578Z" fill="white"/>
<path fill-rule="evenodd" clip-rule="evenodd" d="M7 4.5H3C2.44772 4.5 2 4.94772 2 5.5V9.5C2 10.0523 2.44772 10.5 3 10.5H7C7.55228 10.5 8 10.0523 8 9.5V5.5C8 4.94772 7.55228 4.5 7 4.5ZM3 2.5C1.34315 2.5 0 3.84315 0 5.5V9.5C0 11.1569 1.34315 12.5 3 12.5H7C8.65685 12.5 10 11.1569 10 9.5V5.5C10 3.84315 8.65685 2.5 7 2.5H3Z" fill="white"/>
<path fill-rule="evenodd" clip-rule="evenodd" d="M7 16.5H3C2.44772 16.5 2 16.9477 2 17.5V21.5C2 22.0523 2.44772 22.5 3 22.5H7C7.55228 22.5 8 22.0523 8 21.5V17.5C8 16.9477 7.55228 16.5 7 16.5ZM3 14.5C1.34315 14.5 0 15.8431 0 17.5V21.5C0 23.1569 1.34315 24.5 3 24.5H7C8.65685 24.5 10 23.1569 10 21.5V17.5C10 15.8431 8.65685 14.5 7 14.5H3Z" fill="white"/>
<path fill-rule="evenodd" clip-rule="evenodd" d="M19 16.5H15C14.4477 16.5 14 16.9477 14 17.5V21.5C14 22.0523 14.4477 22.5 15 22.5H19C19.5523 22.5 20 22.0523 20 21.5V17.5C20 16.9477 19.5523 16.5 19 16.5ZM15 14.5C13.3431 14.5 12 15.8431 12 17.5V21.5C12 23.1569 13.3431 24.5 15 24.5H19C20.6569 24.5 22 23.1569 22 21.5V17.5C22 15.8431 20.6569 14.5 19 14.5H15Z" fill="white"/>
</g>
</g>
<defs>
<clipPath id="clip0_1_868">
<rect width="24" height="24" fill="white" transform="translate(0 0.5)"/>
</clipPath>
<clipPath id="clip1_1_868">
<rect width="24" height="24" fill="white" transform="translate(0 0.5)"/>
</clipPath>
</defs>
</svg>
