<svg width="24" height="25" viewBox="0 0 24 25" fill="none" xmlns="http://www.w3.org/2000/svg">
<g clip-path="url(#clip0_1_910)">
<path fill-rule="evenodd" clip-rule="evenodd" d="M0.299988 3.2C0.299988 2.70295 0.70293 2.3 1.19999 2.3H3.25583C4.3789 2.3 5.38471 2.99522 5.7816 4.04582L6.25583 5.30107C6.27017 5.30037 6.28469 5.30002 6.29921 5.3L20.4056 5.28801C22.3297 5.28637 23.638 7.24052 22.9033 9.01892L20.5818 14.6383C20.3091 15.2986 19.7195 15.7749 19.0166 15.9027L11.2367 17.3172C9.95441 17.5503 8.68859 16.8342 8.22797 15.6149L4.09775 4.68194C3.96545 4.33174 3.63019 4.1 3.25583 4.1H1.19999C0.70293 4.1 0.299988 3.69706 0.299988 3.2ZM6.93521 7.09946L9.91181 14.9788C10.0653 15.3852 10.4873 15.6239 10.9148 15.5462L18.6946 14.1317C18.795 14.1134 18.8793 14.0454 18.9182 13.951L21.2397 8.33162C21.4846 7.73888 21.0485 7.08746 20.4071 7.088L6.93521 7.09946Z" fill="white"/>
<path d="M8.09999 22.7C9.0941 22.7 9.89999 21.8941 9.89999 20.9C9.89999 19.9059 9.0941 19.1 8.09999 19.1C7.10588 19.1 6.29999 19.9059 6.29999 20.9C6.29999 21.8941 7.10588 22.7 8.09999 22.7Z" fill="white"/>
<path d="M18.9 22.7C19.8941 22.7 20.7 21.8941 20.7 20.9C20.7 19.9059 19.8941 19.1 18.9 19.1C17.9059 19.1 17.1 19.9059 17.1 20.9C17.1 21.8941 17.9059 22.7 18.9 22.7Z" fill="white"/>
</g>
<defs>
<clipPath id="clip0_1_910">
<rect width="24" height="24" fill="white" transform="translate(0 0.5)"/>
</clipPath>
</defs>
</svg>
