<svg width="24" height="25" viewBox="0 0 24 25" fill="none" xmlns="http://www.w3.org/2000/svg">
<g clip-path="url(#clip0_1_903)">
<path fill-rule="evenodd" clip-rule="evenodd" d="M18 8C18 11.3137 15.3137 14 12 14C8.68624 14 5.99994 11.3137 5.99994 8C5.99994 4.68629 8.68624 2 12 2C15.3137 2 18 4.68629 18 8ZM16 8C16 10.2091 14.2091 12 12 12C9.79081 12 7.99994 10.2091 7.99994 8C7.99994 5.79086 9.79081 4 12 4C14.2091 4 16 5.79086 16 8Z" fill="white"/>
<path d="M1.49996 23C2.41188 23.4104 2.41148 23.4113 2.41148 23.4113L2.41263 23.4089C2.41546 23.4029 2.42089 23.3915 2.42899 23.375C2.4452 23.3422 2.47204 23.2893 2.51006 23.2193C2.58617 23.0791 2.70665 22.8709 2.87576 22.6172C3.21464 22.1089 3.74432 21.4248 4.49763 20.7399C5.99185 19.3816 8.38448 18 12 18C15.6154 18 18.0081 19.3816 19.5023 20.7399C20.2556 21.4248 20.7853 22.1089 21.1242 22.6172C21.2933 22.8709 21.4137 23.0791 21.4899 23.2193C21.5279 23.2893 21.5547 23.3422 21.5709 23.375C21.579 23.3915 21.5845 23.4029 21.5873 23.4089L21.5884 23.4113C21.5884 23.4113 21.588 23.4104 22.5 23C23.4119 22.5896 23.4114 22.5886 23.4114 22.5886L23.4109 22.5874L23.4096 22.5847L23.4064 22.5775L23.3967 22.5567C23.3888 22.54 23.3781 22.5177 23.3645 22.4902C23.3374 22.4352 23.2986 22.3591 23.2476 22.2651C23.1455 22.0772 22.9942 21.8166 22.7883 21.5078C22.3771 20.8911 21.7443 20.0752 20.8476 19.2601C19.0419 17.6184 16.1845 16 12 16C7.81543 16 4.95806 17.6184 3.15228 19.2601C2.25559 20.0752 1.62277 20.8911 1.21166 21.5078C1.00576 21.8166 0.854366 22.0772 0.752354 22.2651C0.701314 22.3591 0.662531 22.4352 0.635378 22.4902C0.621798 22.5177 0.611116 22.54 0.603254 22.5567L0.593563 22.5775L0.590283 22.5847L0.589031 22.5874L0.588501 22.5886C0.588501 22.5886 0.588036 22.5896 1.49996 23Z" fill="white"/>
</g>
<defs>
<clipPath id="clip0_1_903">
<rect width="24" height="24" fill="white" transform="translate(0 0.5)"/>
</clipPath>
</defs>
</svg>
